<?xml version="1.0" encoding="UTF-8"?><svg xmlns="http://www.w3.org/2000/svg" viewBox="0 0 693 414.97"><defs><style>.d{fill:#fff;}.e{fill:#253444;fill-rule:evenodd;}</style></defs><g id="a"/><g id="b"><g id="c"><g><path class="e" d="M346.5,414.97c-93.36,0-181-22.07-246.76-62.15C35.42,313.63,0,262.02,0,207.49S35.42,101.34,99.74,62.15C165.5,22.07,253.14,0,346.5,0s181,22.07,246.76,62.15c64.32,39.19,99.74,90.81,99.74,145.34s-35.42,106.15-99.74,145.34c-65.77,40.08-153.4,62.15-246.76,62.15Z"/><path class="d" d="M346.5,400.97c-68.84-.18-138.4-11.69-201.63-39.58-39.32-17.68-77.23-41.74-103.58-76.54-31.64-41.75-35.9-91.42-8.96-136.84,25.13-41.83,67.11-70.53,110.44-91.05C246.79,8.86,379.03,3.26,488.78,34.18c67.84,19.5,146.2,59.39,178.13,125.6,7.61,16.09,11.83,33.87,11.6,51.7-1.83,73.15-69.25,122.64-130.39,149.92-63.24,27.88-132.8,39.38-201.63,39.57h0Zm0,0c98.65-.2,213.91-27.03,285.01-99.35,36.8-37.8,52.92-89.26,27.79-138.15-23.5-45.4-68.61-74.94-114.09-95.52-92.37-40.38-201.61-47.71-300.23-29.69-64.85,12.39-133.75,38.13-181.53,85.01C-10.86,197.43,21.02,281.48,100.83,334.41c32.06,21.63,68.14,36.98,105.27,47.62,45.52,13.03,93.11,18.75,140.4,18.94h0Z"/><g><path class="d" d="M235.93,186.65c4.92-6.11,10.05-11.24,15.39-15.39,5.35-4.15,10.98-6.85,16.9-8.09,.76-.19,1.55-.33,2.36-.43,.81-.09,1.55-.14,2.22-.14,2.38,0,4.15,.53,5.3,1.58,.48,.29,.86,.38,1.15,.29,.29-.09,.43-.29,.43-.57s-.14-.62-.43-1c-2.96-3.63-7.11-5.54-12.46-5.73-4.2,0-9.07,1.24-14.61,3.72-5.54,2.48-10.79,7.02-15.75,13.6-4.3,5.92-8.59,12.41-12.89,19.48-4.3,7.07-8.5,14.32-12.6,21.77-4.11,7.45-8.12,14.68-12.03,21.7-3.92,7.02-7.73,13.44-11.46,19.26-3.72,5.82-7.3,10.69-10.74,14.61-3.44,3.92-6.73,6.44-9.88,7.59,4.68-4.2,8.26-8.88,10.74-14.03,2.48-5.16,4.25-10.55,5.3-16.18,1.05-5.63,1.67-11.29,1.86-16.97,.19-5.68,.33-11.17,.43-16.47,.09-5.3,.43-10.24,1-14.82,.57-4.58,1.76-8.5,3.58-11.74,2-3.63,4.08-6.59,6.23-8.88,2.15-2.29,4.94-3.48,8.38-3.58,.76,0,1.15-.33,1.15-1,0-.76-.38-1.15-1.15-1.15-1.72-.09-3.42,.02-5.08,.36-1.67,.34-3.6,1.05-5.8,2.15-2.2,1.1-4.87,2.79-8.02,5.08-2,1.43-4.37,3.99-7.09,7.66-2.72,3.68-5.66,8.04-8.81,13.1-3.15,5.06-6.47,10.5-9.95,16.33-3.49,5.82-6.99,11.65-10.53,17.47-1.24-5.44-3.2-10.1-5.87-13.96-2.67-3.87-5.78-6.99-9.31-9.38,.19-4.77,.55-9.24,1.07-13.39,.52-4.15,1.65-7.75,3.37-10.81,2-3.63,4.08-6.59,6.23-8.88,2.15-2.29,4.94-3.48,8.38-3.58,.76,0,1.15-.33,1.15-1,0-.76-.38-1.15-1.15-1.15-15.75,1.62-29.21,4.96-40.38,10.02-11.17,5.06-20.29,11.22-27.35,18.47-7.07,7.26-12.24,15.04-15.54,23.34-3.29,8.31-4.94,16.52-4.94,24.63s1.26,15.01,3.79,21.27c2.53,6.25,5.94,11.55,10.24,15.9,4.3,4.34,9.12,7.66,14.46,9.95,5.35,2.29,10.79,3.44,16.33,3.44,7.64,0,14.82-2.27,21.55-6.8,6.73-4.54,11.81-11.58,15.25-21.12,2.48-1.81,4.87-4.06,7.16-6.73,2.29-2.67,4.49-5.87,6.59-9.59,.19-.38,.17-.74-.07-1.07-.24-.33-.55-.5-.93-.5-.29,0-.57,.19-.86,.57-1.53,2.96-3.22,5.54-5.08,7.73-1.86,2.2-3.75,4.11-5.66,5.73,1.91-6.3,2.86-13.51,2.86-21.62,0-2.29-.14-4.44-.43-6.44,4.3-7.16,8.54-14.37,12.75-21.62,4.2-7.25,8.31-13.98,12.32-20.19,4.01-6.21,7.92-11.31,11.74-15.32,3.82-4.01,7.49-6.39,11.03-7.16-3.34,1.24-6.23,3.25-8.66,6.01-2.43,2.77-4.46,5.92-6.09,9.45-1.62,3.53-2.89,7.16-3.79,10.88-.91,3.72-1.6,7.16-2.08,10.31-.57,4.11-1.1,8.76-1.58,13.96-.48,5.2-1.1,10.55-1.86,16.04-.77,5.49-1.84,10.81-3.22,15.97-1.39,5.16-3.27,9.83-5.66,14.03-2.39,4.2-5.44,7.59-9.16,10.17-.38,.29-.57,.62-.57,1,0,.57,.38,.86,1.15,.86,4.58,.29,9.07-1.1,13.46-4.15,4.39-3.05,8.71-7.28,12.96-12.67,4.25-5.39,8.5-11.53,12.75-18.4,4.25-6.87,8.57-14.06,12.96-21.55,4.39-7.49,8.85-14.87,13.39-22.12,4.53-7.25,9.26-13.94,14.18-20.05Zm-93.8,38.59c2.34,4.06,3.94,8.9,4.8,14.54-4.68,7.64-9.29,14.7-13.82,21.19-4.54,6.49-8.71,11.36-12.53,14.61l-1.43-.57c3.72-4.2,6.56-8.71,8.52-13.53,1.96-4.82,3.34-9.86,4.15-15.11,.81-5.25,1.31-10.5,1.5-15.75,.19-5.25,.33-10.31,.43-15.18,3.24,2.48,6.04,5.75,8.38,9.81Zm-27.85,47.47c-3.82-2.19-7.21-5.06-10.17-8.59-2.96-3.53-5.3-7.47-7.02-11.81-1.72-4.34-2.58-8.76-2.58-13.25,0-6.59,1.12-12.05,3.37-16.4,2.24-4.34,5.16-7.57,8.74-9.67,3.58-2.1,7.38-3.15,11.38-3.15,2.67,0,5.3,.43,7.88,1.29-.86,5.06-1.53,10.34-2,15.82-.48,5.49-1,10.96-1.58,16.4-.57,5.44-1.48,10.67-2.72,15.68-1.24,5.01-3.01,9.57-5.3,13.68Zm4.3,4.44c-1.24,.77-2.29,1.34-3.15,1.72l2.15-2.15,1,.43Zm9.09,16.25c-6.06,3.87-12.39,5.8-18.97,5.8-4.96,0-9.86-1.05-14.68-3.15-4.82-2.1-9.14-5.23-12.96-9.38-3.82-4.15-6.87-9.28-9.17-15.39-2.29-6.11-3.44-13.12-3.44-21.05s1.6-15.32,4.8-23.06c3.2-7.73,8.04-15.04,14.54-21.91,6.49-6.87,14.63-12.82,24.42-17.83,9.78-5.01,21.22-8.52,34.3-10.53-3.15,1.34-6.04,3.56-8.66,6.66-2.63,3.1-4.65,5.9-6.09,8.38-1.34,2.39-2.46,5.06-3.37,8.02-.91,2.96-1.65,6.01-2.22,9.17-2.86-.86-5.78-1.29-8.74-1.29-4.58,0-8.88,1.12-12.89,3.37-4.01,2.24-7.28,5.68-9.81,10.31-2.53,4.63-3.79,10.48-3.79,17.54,0,4.87,.98,9.62,2.94,14.25,1.96,4.63,4.6,8.78,7.95,12.46,3.34,3.68,7.06,6.66,11.17,8.95-1.15,1.72-2.41,3.34-3.79,4.87-1.38,1.53-2.98,2.91-4.8,4.15-.48,.29-.72,.62-.72,1,0,.57,.38,.86,1.15,.86,2.96,.19,5.87-.38,8.74-1.72,2.86-1.34,5.73-3.25,8.59-5.73,1.05,.19,2.15,.36,3.29,.5s2.29,.21,3.44,.21c4.58,0,8.97-1.05,13.17-3.15-3.53,7.92-8.33,13.82-14.39,17.69Zm19.69-45.75c0,4.78-.34,9.21-1,13.32-.67,4.11-1.62,7.88-2.86,11.31-4.68,3.06-9.64,4.58-14.89,4.58-1.53,0-3.01-.14-4.44-.43,3.91-3.82,7.8-8.42,11.67-13.82,3.87-5.39,7.71-11.14,11.53-17.26v2.29Z"/><path class="d" d="M285.83,225.89c1.53,0,2.86-.52,4.01-1.58,1.15-1.05,1.72-2.34,1.72-3.87,0-1.43-.48-2.62-1.43-3.58-.96-.95-2.1-1.43-3.44-1.43-1.53,0-2.84,.57-3.94,1.72-1.1,1.15-1.65,2.53-1.65,4.15,0,1.24,.45,2.32,1.36,3.22,.91,.91,2.03,1.36,3.37,1.36Z"/><path class="d" d="M353.49,248.87c-.34-.24-.64-.36-.93-.36-.19,0-.29,.05-.29,.14-3.44,7.45-6.8,13.32-10.1,17.61-3.29,4.3-6.35,7.33-9.17,9.09-2.82,1.77-5.23,2.65-7.23,2.65-1.72,0-2.98-.72-3.79-2.15-.81-1.43-1.22-3.25-1.22-5.44,0-2.67,.43-5.63,1.29-8.88,1.33,.96,2.86,1.43,4.58,1.43,2.96,0,5.73-.93,8.31-2.79,2.58-1.86,4.73-4.17,6.44-6.95,1.72-2.77,2.72-5.44,3.01-8.02,.09-.48,.14-.88,.14-1.22v-1.07c0-2.19-.53-4.03-1.58-5.51-1.05-1.48-2.91-2.22-5.58-2.22-3.25,0-6.25,1.05-9.02,3.15-2.77,2.1-5.13,4.61-7.09,7.52-.95,1.41-1.79,2.78-2.52,4.12-.04,.04-.08,.06-.12,.11-1.91,3.82-3.99,7.59-6.23,11.31-2.24,3.72-4.89,7.11-7.95,10.17-1.24,1.24-2.53,2.32-3.87,3.22-1.34,.91-2.53,1.36-3.58,1.36-1.72,0-2.58-1.29-2.58-3.87v-1.07c0-.43,.05-.83,.14-1.22,.76-4.96,2.31-10.26,4.65-15.9,2.34-5.63,4.99-11.07,7.95-16.33h10.6c.38,0,.72-.19,1-.57,.29-.38,.43-.72,.43-1,0-.38-.19-.57-.57-.57h-10.17c2.77-4.96,5.49-9.52,8.16-13.68,2.67-4.15,4.77-7.52,6.3-10.1-1.53,.67-3.22,1.27-5.08,1.79-1.86,.53-3.6,.98-5.23,1.36l-10.31,20.62h-4.15c-.38,0-.72,.19-1,.57-.29,.38-.43,.72-.43,1,0,.38,.19,.57,.57,.57h3.87c-1.81,3.53-3.6,7.21-5.37,11.03-.16,.34-.31,.68-.47,1.03-3.11,5.91-5.79,10.66-8.05,14.22-2.39,3.77-4.96,6.9-7.73,9.38-2.77,2.39-4.82,3.58-6.16,3.58-1.43,0-2.15-1.1-2.15-3.29,0-2,.48-4.3,1.43-6.87,1.24-3.34,2.6-6.66,4.08-9.95,1.48-3.29,2.84-6.56,4.08-9.81,.57-1.62,1.03-3.08,1.36-4.37,.33-1.29,.5-2.41,.5-3.37,0-1.91-.72-3.15-2.15-3.72-1.24-.48-2.34-.72-3.29-.72-2.1,0-3.96,.74-5.58,2.22-1.62,1.48-3.03,3.29-4.22,5.44-1.15,2.06-2.18,4.05-3.1,5.98-.04,.03-.07,.06-.12,.1-3.34,6.49-6.21,11.62-8.59,15.39-2.39,3.77-4.96,6.9-7.73,9.38-2.96,2.48-5.11,3.72-6.44,3.72-1.24,0-1.86-.91-1.86-2.72,0-1.53,.41-3.65,1.22-6.37,.81-2.72,2.08-6.09,3.79-10.1,1.62-3.91,2.96-7.35,4.01-10.31,1.05-2.96,1.58-5.39,1.58-7.3,0-3.15-1.77-4.73-5.3-4.73-2.1,0-4.44,1.12-7.02,3.37-2.58,2.24-5.08,5.06-7.52,8.45-2.43,3.39-4.56,6.8-6.37,10.24,.76-2.48,1.55-5.08,2.36-7.8,.81-2.72,1.6-5.18,2.36-7.38,.76-2.19,1.29-3.63,1.58-4.3,1.72-.86,3.84-2.46,6.37-4.8,2.53-2.34,5.2-5.13,8.02-8.38,2.81-3.24,5.54-6.68,8.16-10.31,2.62-3.63,4.89-7.16,6.8-10.6,1.62-2.77,2.77-5.27,3.44-7.52,.67-2.24,1-4.13,1-5.66,0-2-.46-3.51-1.36-4.51-.91-1-2.13-1.5-3.65-1.5-2,0-4.27,.86-6.8,2.58-2.53,1.72-5.04,4.25-7.52,7.59-4.01,5.54-7.61,11.77-10.81,18.69-3.2,6.92-6.13,14.16-8.81,21.7-2.67,7.54-5.16,15.01-7.45,22.41-2.29,7.4-4.44,14.39-6.44,20.98,1.05-.38,2.08-.55,3.08-.5,1,.05,1.91-.12,2.72-.5,.81-.38,1.41-1.34,1.79-2.86,.48-1.53,1.31-3.7,2.51-6.52,1.19-2.82,2.62-5.89,4.3-9.24,1.67-3.34,3.48-6.52,5.44-9.52,1.96-3.01,3.94-5.49,5.94-7.45,2-1.96,3.87-2.94,5.58-2.94,1.34,0,2,.67,2,2,0,1.24-.5,2.94-1.5,5.08-1,2.15-2.15,4.35-3.44,6.59-1.29,2.25-2.36,4.18-3.22,5.8-2.67,5.63-4.01,10.31-4.01,14.03,0,4.49,2,6.73,6.01,6.73,3.53,0,6.68-1.12,9.45-3.37,2.77-2.24,5.56-5.61,8.38-10.1,.49-.79,1-1.61,1.52-2.46,1.13-1.75,2.24-3.59,3.35-5.56,1.62-2.86,3.12-5.63,4.51-8.32,.05-.09,.1-.18,.15-.27,.05-.05,.08-.11,.09-.18,.56-1.03,1.26-2.37,2.12-4.05,.91-1.77,1.93-3.37,3.08-4.8,1.15-1.43,2.29-2.15,3.44-2.15,.86,0,1.29,.48,1.29,1.43,0,.67-.19,1.53-.57,2.58-.38,1.05-.81,2.24-1.29,3.58-1.15,2.77-2.46,5.71-3.94,8.81-1.48,3.1-2.77,6.18-3.87,9.24-1.1,3.06-1.65,5.92-1.65,8.59,0,2.1,.5,3.79,1.5,5.08,1,1.29,2.36,1.93,4.08,1.93,5.06,0,9.59-2.55,13.6-7.66,2-2.55,4.14-5.7,6.41-9.43-1.22,2.93-1.83,5.86-1.83,8.79,0,2.2,.48,4.11,1.43,5.73,.95,1.62,2.53,2.43,4.73,2.43s4.53-.86,6.73-2.58c2.2-1.72,4.01-3.34,5.44-4.87,2.58-2.77,4.77-5.68,6.59-8.74,.62-1.05,1.23-2.14,1.85-3.22-.47,2.08-.7,4.2-.7,6.37,0,3.63,.86,6.85,2.58,9.67,1.72,2.81,4.63,4.22,8.74,4.22,3.63,0,8.04-2.48,13.25-7.45,5.2-4.96,10.14-12.75,14.82-23.34,.19-.19,.12-.41-.21-.64Zm-30.22,8.74c.24-.72,.5-1.41,.79-2.08,.86-2.39,2.15-5.04,3.87-7.95,1.72-2.91,3.58-5.44,5.58-7.59,2-2.15,3.87-3.22,5.58-3.22,1.05,0,1.79,.45,2.22,1.36,.43,.91,.64,1.98,.64,3.22,0,1.34-.19,2.53-.57,3.58-.96,2.48-2.24,4.94-3.87,7.38-1.62,2.43-3.44,4.44-5.44,6.01s-4.06,2.36-6.16,2.36c-1.05,0-2.15-.29-3.29-.86,.19-.76,.41-1.5,.64-2.22Zm-89.85-28.14c1.15-2.77,2.53-5.99,4.15-9.67,1.62-3.67,3.37-7.45,5.23-11.31,1.86-3.87,3.7-7.42,5.51-10.67,2.2-3.91,4.18-6.73,5.94-8.45,1.77-1.72,3.22-2.58,4.37-2.58,1.53,0,2.29,1.34,2.29,4.01,0,1.43-.26,3.13-.79,5.08-.53,1.96-1.41,4.18-2.65,6.66-2,4.01-4.58,8.26-7.73,12.75-3.15,4.49-6.37,8.52-9.67,12.1-3.29,3.58-6.28,6.18-8.95,7.8,.38-1.05,1.15-2.96,2.29-5.73Z"/><path class="d" d="M475.71,173.04c1.34-1.34,2.89-2.29,4.65-2.86,1.77-.57,3.6-.86,5.51-.86,2.48,0,4.94,.46,7.38,1.36,2.43,.91,4.37,2.17,5.8,3.79,.76,.86,1.53,1.29,2.29,1.29,1.15,0,1.72-.76,1.72-2.29,0-.76-.19-1.6-.57-2.51-.38-.91-1.05-1.84-2-2.79-2.48-2.48-6.11-3.72-10.88-3.72-2.86,0-5.8,.55-8.81,1.65-3.01,1.1-5.61,2.79-7.8,5.08-2.67,2.67-4.51,5.51-5.51,8.52-1,3.01-1.5,6.09-1.5,9.24,0,3.34,.38,6.73,1.15,10.17,.76,3.44,1.6,6.78,2.51,10.02,.91,3.25,1.5,6.3,1.79,9.17,.29,2.29,.48,4.51,.57,6.66,.09,2.15,.14,4.22,.14,6.23,0,10.02-1.34,18.69-4.01,25.99-2.67,7.3-6.23,13.32-10.67,18.04s-9.31,8.23-14.61,10.53c-5.3,2.29-10.58,3.44-15.82,3.44-6.97,0-13.13-1.81-18.47-5.44,7.73-1.72,14.18-4.44,19.33-8.16,5.16-3.72,9.14-7.99,11.96-12.82,2.82-4.82,4.42-9.71,4.8-14.68,6.39-4.49,11.26-9.64,14.61-15.47,3.34-5.82,5.01-11.22,5.01-16.18,0-4.39-1.38-8.04-4.15-10.96-2.77-2.91-7.11-4.37-13.03-4.37-3.63,0-8.31,1-14.03,3.01-5.73,2-11.41,5.16-17.04,9.45-3.15-.57-6.06-.86-8.74-.86-6.3,0-11.62,1.2-15.97,3.58-4.35,2.39-7.64,5.42-9.88,9.09-2.24,3.68-3.37,7.52-3.37,11.53s1.19,7.97,3.58,11.6c2.38,3.63,6.06,6.4,11.03,8.31-.19,5.54,.62,10.45,2.43,14.75,1.81,4.3,4.3,7.97,7.45,11.03-3.53,.57-7.4,.86-11.6,.86-2.2,0-4.49-.21-6.87-.64-2.39-.43-4.15-1.12-5.3-2.08-.29-.29-.6-.36-.93-.21-.34,.14-.5,.41-.5,.79,0,.19,.09,.38,.29,.57,1.43,1.34,3.48,2.29,6.16,2.86,2.67,.57,5.06,.86,7.16,.86,2.48,0,4.87-.1,7.16-.29,2.29-.19,4.49-.48,6.59-.86,3.63,2.96,7.83,5.18,12.6,6.66,4.77,1.48,9.74,2.22,14.89,2.22,6.01,0,12-1.03,17.97-3.08,5.97-2.05,11.41-5.16,16.33-9.31,4.92-4.15,8.83-9.38,11.74-15.68,2.91-6.3,4.37-13.65,4.37-22.05,0-7.16-1.29-15.08-3.87-23.77-.86-3.05-2-6.32-3.44-9.81-1.43-3.48-2.7-7.09-3.79-10.81-1.1-3.72-1.65-7.35-1.65-10.88,0-2.77,.45-5.42,1.36-7.95,.91-2.53,2.41-4.84,4.51-6.95Zm-41.31,32.51c5.11-1.81,9.33-2.72,12.67-2.72,5.25,0,9.09,1.2,11.53,3.58,2.43,2.39,3.65,5.39,3.65,9.02,0,4.3-1.53,9.05-4.58,14.25-3.06,5.21-7.35,10-12.89,14.39-.29-6.68-2.58-12.82-6.87-18.4s-10.55-9.43-18.76-11.53c5.06-3.91,10.14-6.78,15.25-8.59Zm-16.97,10.02c5.63,1.24,10.36,3.37,14.18,6.37,3.82,3.01,6.71,6.54,8.66,10.6,1.96,4.06,2.89,8.33,2.79,12.82-4.68,3.34-10,6.11-15.97,8.31-5.97,2.2-12.48,3.29-19.55,3.29-4.2,0-7.97-.52-11.31-1.58,.19-2.67,.62-5.35,1.29-8.02,1.62-7.06,4.25-13.25,7.88-18.54,3.63-5.3,7.64-9.71,12.03-13.25Zm-23.34,31.08c-.57,2.67-1,5.16-1.29,7.45-4.01-1.81-6.97-4.3-8.88-7.45-1.91-3.15-2.86-6.44-2.86-9.88,0-3.63,1.03-7.16,3.08-10.6,2.05-3.44,5.06-6.25,9.02-8.45,3.96-2.2,8.81-3.29,14.54-3.29,1.05,0,2.1,.05,3.15,.14,1.05,.1,2.15,.24,3.29,.43-4.39,3.63-8.43,8.04-12.1,13.25-3.68,5.2-6.33,11.34-7.95,18.4Zm4.65,25.28c-1.86-4.06-2.75-8.71-2.65-13.96,1.62,.38,3.41,.72,5.37,1,1.96,.29,3.99,.43,6.09,.43,7.06,0,13.56-.93,19.48-2.79,5.92-1.86,11.17-4.27,15.75-7.23-.67,4.68-2.43,9.24-5.3,13.68s-6.9,8.33-12.1,11.67c-5.2,3.34-11.58,5.78-19.12,7.3-3.15-2.67-5.66-6.04-7.52-10.1Z"/><path class="d" d="M563.49,225.89c1.53,0,2.86-.52,4.01-1.58,1.15-1.05,1.72-2.34,1.72-3.87,0-1.43-.48-2.62-1.43-3.58-.96-.95-2.1-1.43-3.44-1.43-1.53,0-2.84,.57-3.94,1.72-1.1,1.15-1.65,2.53-1.65,4.15,0,1.24,.45,2.32,1.36,3.22,.91,.91,2.03,1.36,3.37,1.36Z"/><path class="d" d="M639.96,248.44c-.19-.24-.43-.36-.72-.36-.48,0-.77,.19-.86,.57-1.53,2.86-3.25,6.04-5.16,9.52-1.91,3.49-4.08,6.8-6.52,9.95s-5.23,5.63-8.38,7.45c-1.82,1.05-3.99,1.84-6.52,2.36-2.53,.53-4.94,.74-7.23,.64,3.05-.95,5.66-2.46,7.8-4.51,2.15-2.05,3.84-4.84,5.08-8.38,.38-1.05,.62-2.15,.72-3.29,.09-1.15,.14-2.29,.14-3.44,0-3.05-.31-6.06-.93-9.02-.62-2.96-1.22-5.58-1.79-7.88-.1-.48-.17-.93-.21-1.36-.05-.43-.07-.83-.07-1.22,0-2.48,.72-4.44,2.15-5.87,1.43-1.43,3.01-1.91,4.73-1.43,.48,.1,.91,.05,1.29-.14,.38-.19,.57-.48,.57-.86,0-.57-.62-1.15-1.86-1.72-1.24-.48-2.43-.72-3.58-.72-2.39,0-4.65,.96-6.8,2.86-2.15,1.91-4.13,4.42-5.94,7.52-1.81,3.1-3.58,6.37-5.3,9.81-.35,.71-.73,1.43-1.11,2.16-.22,.4-.47,.85-.75,1.35-1.05,1.86-2.17,3.84-3.37,5.94-.18,.32-.36,.62-.53,.93-1.18,.44-2.37,1.63-3.55,3.58-.85,1.42-1.41,2.93-1.67,4.55-.99,1.33-2.1,2.67-3.34,4.04-1.43,1.58-2.91,2.94-4.44,4.08-2.48,1.91-4.44,2.86-5.87,2.86-.96,0-1.65-.45-2.08-1.36-.43-.91-.64-2.08-.64-3.51,0-2.19,.33-4.77,1-7.73,.67-2.96,1.45-5.85,2.36-8.66,.91-2.81,2.03-6.09,3.37-9.81,1.72-1.53,3.79-3.65,6.23-6.37s4.99-5.8,7.66-9.24c2.67-3.44,5.32-6.99,7.95-10.67,2.62-3.67,4.99-7.18,7.09-10.53,2.86-4.58,4.92-8.52,6.16-11.81,1.24-3.29,1.86-5.99,1.86-8.09,0-3.91-1.58-5.87-4.73-5.87-1.91,0-4.18,.88-6.8,2.65-2.63,1.77-5.18,4.32-7.66,7.66-1.43,1.91-3.13,4.73-5.08,8.45-1.96,3.72-4.06,7.95-6.3,12.67-2.25,4.73-4.44,9.69-6.59,14.89-2.15,5.2-4.11,10.29-5.87,15.25-.61,1.7-1.15,3.33-1.67,4.93-2.78,5.23-5.21,9.49-7.27,12.75-2.39,3.77-4.96,6.9-7.73,9.38-2.77,2.39-4.82,3.58-6.16,3.58-1.43,0-2.15-1.1-2.15-3.29,0-2,.48-4.3,1.43-6.87,1.24-3.34,2.6-6.66,4.08-9.95,1.48-3.29,2.84-6.56,4.08-9.81,.57-1.62,1.03-3.08,1.36-4.37,.33-1.29,.5-2.41,.5-3.37,0-1.91-.72-3.15-2.15-3.72-1.24-.48-2.34-.72-3.29-.72-2.1,0-3.96,.74-5.58,2.22-1.62,1.48-3.03,3.29-4.22,5.44-1.2,2.15-2.27,4.22-3.22,6.23-1.34,2.67-2.79,5.47-4.37,8.38-.34,.63-.69,1.24-1.04,1.86-.26,.45-.53,.9-.8,1.35-.46,.77-.93,1.53-1.41,2.28-.19,.3-.39,.61-.59,.91-.21,.32-.42,.62-.64,.94-1.77,2.52-3.73,4.88-5.91,7.05-.67,.67-1.81,1.65-3.44,2.94-1.62,1.29-2.96,1.93-4.01,1.93-.86,0-1.38-.45-1.58-1.36-.19-.91-.29-1.74-.29-2.51v-.57c0-2.38,.55-5.06,1.65-8.02,1.1-2.96,2.22-5.54,3.37-7.73,1.53-2.96,3.03-5.97,4.51-9.02,1.48-3.05,3.03-5.97,4.65-8.74-1.53,.67-3.13,1.27-4.8,1.79-1.67,.53-3.32,.98-4.94,1.36l-6.16,12.89c-.67,1.34-1.67,3.27-3.01,5.8-1.34,2.53-2.82,5.11-4.44,7.73-1.62,2.63-3.29,4.85-5.01,6.66-1.72,1.82-3.25,2.72-4.58,2.72-1.24,0-2.17-.57-2.79-1.72-.62-1.15-.93-2.62-.93-4.44,0-2.86,.69-6.28,2.08-10.24,1.38-3.96,3.37-7.85,5.94-11.67,2.58-3.82,5.7-6.97,9.38-9.45,3.67-2.48,7.85-3.72,12.53-3.72,.67,0,1.69-.09,3.08-.29,1.38-.19,2.08-.38,2.08-.57s-.96-.43-2.86-.72c-.77-.19-1.55-.29-2.36-.29h-2.36c-5.82,0-11.48,1.7-16.97,5.08-5.49,3.39-9.76,8.28-12.82,14.68-.86,1.81-1.77,4.25-2.72,7.3-.96,3.06-1.43,5.97-1.43,8.74s.59,4.92,1.79,6.73c1.19,1.81,3.41,2.72,6.66,2.72,2,0,4.03-.93,6.09-2.79,2.05-1.86,3.91-4.03,5.58-6.52,1.67-2.48,2.84-4.58,3.51-6.3-.29,.96-.55,2.08-.79,3.37-.24,1.29-.36,2.6-.36,3.94,0,2.1,.43,3.99,1.29,5.66,.86,1.67,2.34,2.51,4.44,2.51s4.39-.86,6.59-2.58c2.19-1.72,4.06-3.34,5.58-4.87,2.48-2.77,4.63-5.68,6.44-8.74,.06-.1,.11-.2,.17-.3,.98-1.54,1.95-3.16,2.91-4.86,1.67-2.96,3.22-5.82,4.65-8.59,.57-1.05,1.31-2.46,2.22-4.22,.91-1.77,1.93-3.37,3.08-4.8,1.15-1.43,2.29-2.15,3.44-2.15,.86,0,1.29,.48,1.29,1.43,0,.67-.19,1.53-.57,2.58-.38,1.05-.81,2.24-1.29,3.58-1.15,2.77-2.46,5.71-3.94,8.81-1.48,3.1-2.77,6.18-3.87,9.24-1.1,3.06-1.65,5.92-1.65,8.59,0,2.1,.5,3.79,1.5,5.08,1,1.29,2.36,1.93,4.08,1.93,5.06,0,9.59-2.55,13.6-7.66,2.66-3.38,5.55-7.82,8.66-13.28-.12,.44-.25,.89-.36,1.32-1.05,4.11-1.58,7.45-1.58,10.02,0,3.82,.72,6.47,2.15,7.95,1.43,1.48,3.05,2.22,4.87,2.22,1.34,0,2.7-.29,4.08-.86,1.38-.57,2.6-1.34,3.65-2.29,2.44-2.06,4.65-4.25,6.63-6.54,.19,2.38,1.3,4.56,3.32,6.54,2.24,2.19,6.42,3.29,12.53,3.29,5.06,0,9.45-1.05,13.17-3.15,3.44-1.91,6.4-4.37,8.88-7.38,2.48-3.01,4.73-6.3,6.73-9.88s3.96-7.14,5.87-10.67c.19-.29,.19-.55,0-.79Zm-57.07-9.24c1-2.58,2.27-5.66,3.79-9.24,1.53-3.58,3.15-7.38,4.87-11.38,1.72-4.01,3.44-7.83,5.16-11.46,1.72-3.63,3.29-6.73,4.73-9.31,2-3.63,3.89-6.28,5.66-7.95,1.77-1.67,3.17-2.51,4.22-2.51,1.62,0,2.43,1.29,2.43,3.87,0,1.82-.5,4.2-1.5,7.16-1,2.96-2.7,6.4-5.08,10.31-2.39,3.92-5.2,8.12-8.45,12.6-3.25,4.49-6.44,8.76-9.59,12.82-3.15,4.06-5.87,7.42-8.16,10.1,.29-.76,.93-2.43,1.93-5.01Zm12.1,37.09c-1.24-1.05-1.86-2.72-1.86-5.01,0-.48,.05-1.02,.14-1.65,.09-.62,.24-1.26,.43-1.93,.48-1.62,1.31-3.1,2.51-4.44,1.19-1.34,2.6-2,4.22-2,.19,0,.4,.02,.64,.07,.24,.05,.5,.12,.79,.21,.19-.38,.07-1-.36-1.86-.43-.86-1.41-1.29-2.94-1.29-.53,0-.93,.05-1.22,.13,.47-.87,.96-1.78,1.45-2.72l2.78-5c1.53-2.77,2.91-5.39,4.15-7.88,1.24-2.48,2.53-4.63,3.87-6.44,.86-1.15,2.15-2.43,3.87-3.87,1.72-1.43,3.39-2.15,5.01-2.15,.67,0,1.34,.19,2,.57-2.96,.48-5.06,1.89-6.3,4.22-1.24,2.34-1.96,4.85-2.15,7.52-.1,1.72-.14,4.2-.14,7.45s-.12,6.71-.36,10.38c-.24,3.68-.88,7-1.93,9.95-.86,2.39-2.29,4.2-4.3,5.44-2,1.24-3.96,1.86-5.87,1.86-1.72,0-3.2-.52-4.44-1.58Z"/></g><g><path class="d" d="M270.65,184.84c27.81,5.9,65.06,1.67,92.07-6.44,22.75-7.45,41.96-12.57,66.23-9,7.74,1.1,15.32,2.89,22.65,5.44-6.86-.14-16.24-.37-22.94-.13-15.08,.35-29.59,2.81-43.98,7.19-5.19,1.55-11.09,3.43-16.35,5.02-28.02,8.89-70.94,10.89-97.67-2.09h0Z"/><path class="d" d="M361.02,190.81c14.08,2.56,32.13-.34,45.52-4.94,7.42-2.78,14.92-5.85,22.91-6.77,8.11-.98,16.24,0,23.81,2.31-7.8,.13-15.55,.29-23.09,2-7.62,1.61-14.51,4.71-21.96,7.29-13.93,4.56-33.65,6.18-47.2,.11h0Z"/><path class="d" d="M401.27,165.31c.22-.24,.42-.48,.57-.71,0,0,5.4-7.8,14-22.6-19.35-2.15-87.34,18.28-112.7,35.47,0,0,.31,2.07,2.24,6.41,19.92-.56,40.6-4.09,57.35-9.12,13.49-4.42,25.74-8,38.54-9.45Z"/><path class="d" d="M363.7,61.93c-7.09,34.78-32.31,83.16-53.68,105.06,12.06-6.7,29.26-13.56,46.54-19.16,6.75-29.56,7.47-67.41,7.14-85.9Z"/><path class="d" d="M369.67,37.03c7.13,28.41-.12,92.2-4.65,108.16,16.3-4.89,31.92-8.43,42.5-9.38-2.36-40.49-27.61-85-37.85-98.78Z"/></g><path class="d" d="M230.53,122.52c7.98-10.55,13.12-12.08,23.93-6.42,0,0,3.86-15.7,19.56-11.84,0,0-14.16,7.72-15.19,19.56,0,0-16.18-8.1-28.31-1.3Z"/><path class="d" d="M200.38,96.5c4.9-6.48,8.06-7.42,14.69-3.94,0,0,2.37-9.64,12.01-7.27,0,0-8.69,4.74-9.32,12.01,0,0-9.93-4.97-17.38-.8Z"/><g><path class="d" d="M187.15,318.91l4.17,1.41-9.85,29.18-4.17-1.41,9.85-29.18Z"/><path class="d" d="M229.09,331.15l-7.92,29.77-3.49-.93-11.96-26.95-5.9,22.2-4.25-1.13,7.91-29.77,3.49,.93,11.96,26.95,5.9-22.2,4.25,1.13Z"/><path class="d" d="M267.53,338.5l-5.4,30.32-3.55-.63-14.16-25.86-4.03,22.61-4.33-.77,5.4-30.32,3.55,.63,14.16,25.86,4.03-22.61,4.33,.77Z"/><path class="d" d="M316.1,374.77l-3.78-4.38c-2.87,2.39-6.48,3.49-10.56,3.19-6.23-.46-10.51-4.09-10.16-8.79,.28-3.77,2.63-6.25,8.16-8.88-2.56-2.97-3.33-5.01-3.16-7.3,.31-4.12,3.76-6.65,8.81-6.27,4.65,.35,7.46,2.98,7.16,6.98-.23,3.12-2.24,5.22-7.14,7.54l7.03,8.11c.95-1.52,1.75-3.31,2.3-5.43l3.3,1.35c-.73,2.68-1.83,4.98-3.2,6.82l3.82,4.43-2.58,2.63Zm-6.1-7.03l-8.09-9.34c-4.48,2.09-5.97,3.79-6.16,6.25-.22,2.94,2.4,5.12,6.52,5.43,2.94,.22,5.6-.55,7.72-2.34Zm-9.49-18.93c-.12,1.58,.41,2.77,2.72,5.5,4.21-1.98,5.63-3.29,5.77-5.22,.15-2.02-1.2-3.49-3.83-3.68-2.76-.21-4.5,1.21-4.67,3.4Z"/><path class="d" d="M343.34,359.73c-.16-9.11,6.67-15.88,16.04-16.04,4.75-.08,8.92,1.47,11.79,4.58l-2.81,2.82c-2.42-2.46-5.34-3.56-8.73-3.5-6.95,.13-12.01,5.23-11.88,12.05,.12,6.82,5.36,11.74,12.31,11.62,3.39-.06,6.27-1.3,8.6-3.85l2.91,2.72c-2.76,3.22-6.86,4.96-11.66,5.05-9.33,.17-16.4-6.35-16.56-15.46Z"/><path class="d" d="M401.68,364.68l-16.31,1.35-2.74,7.95-4.52,.37,11.36-31.85,4.34-.36,16.49,29.54-4.6,.38-4.01-7.4Zm-1.83-3.38l-7.87-14.49-5.38,15.59,13.24-1.1Z"/><path class="d" d="M445.42,358.1c.8,5.22-2.69,8.83-10.39,10.01l-14.52,2.24-4.69-30.44,13.66-2.1c7-1.08,11.37,1.28,12.13,6.19,.51,3.3-.83,5.87-3.04,7.41,3.58,.43,6.24,2.65,6.86,6.69Zm-24.71-15.34l1.5,9.74,8.92-1.37c4.44-.68,6.7-2.72,6.21-5.94-.5-3.22-3.27-4.48-7.71-3.8l-8.92,1.37Zm20.27,15.67c-.54-3.52-3.39-4.69-8.22-3.94l-10,1.54,1.56,10.13,10-1.54c4.83-.74,7.2-2.67,6.66-6.19Z"/><path class="d" d="M452.32,333.65l4.3-.91,6.38,30.13-4.3,.91-6.38-30.13Z"/><path class="d" d="M494.74,322.94l8.24,29.68-3.48,.96-23.95-17.19,6.14,22.13-4.24,1.18-8.24-29.68,3.48-.96,23.95,17.19-6.14-22.13,4.24-1.18Z"/><path class="d" d="M513.53,345.49l.34-3.78c2.86,1.15,7.05,1.2,10.77-.17,4.99-1.84,6.42-4.57,5.5-7.09-2.6-7.06-18.46,3.86-22.42-6.88-1.65-4.46,.42-9.53,8.02-12.34,3.38-1.25,7.23-1.63,10.23-.87l-.14,3.8c-3.11-.68-6.23-.37-8.79,.57-4.91,1.81-6.26,4.65-5.33,7.17,2.6,7.06,18.48-3.81,22.39,6.79,1.63,4.42-.52,9.52-8.15,12.34-4.42,1.63-9.3,1.74-12.4,.45Z"/></g></g></g></g></svg>